<?xml version="1.0" encoding="UTF-8"?>
<svg version="1.1" xmlns="http://www.w3.org/2000/svg" width="160" height="160">
<path d="M0 0 C52.8 0 105.6 0 160 0 C160 52.8 160 105.6 160 160 C107.2 160 54.4 160 0 160 C0 107.2 0 54.4 0 0 Z " fill="#5F81B5" transform="translate(0,0)"/>
<path d="M0 0 C15.51 0 31.02 0 47 0 C41.44425386 11.11149228 41.44425386 11.11149228 37.4375 15.0625 C30.71079947 22.22498346 28.51876164 29.4278049 27 39 C28.485 38.505 28.485 38.505 30 38 C30.29132812 38.65484375 30.58265625 39.3096875 30.8828125 39.984375 C34.07241779 47.08576036 37.47518948 54.05939371 41 61 C40.67 60.01 40.34 59.02 40 58 C39.33333333 56 38.66666667 54 38 52 C39.5843317 52.08768248 41.16753567 52.19587329 42.75 52.3125 C44.07257812 52.39951172 44.07257812 52.39951172 45.421875 52.48828125 C48.37006642 53.07345258 49.8445041 53.92433729 52 56 C52.25 58.6875 52.25 58.6875 52 61 C53.29633621 59.93354885 53.29633621 59.93354885 53.0625 57.4375 C53.041875 56.633125 53.02125 55.82875 53 55 C54.1446875 55.0928125 54.1446875 55.0928125 55.3125 55.1875 C58.04525312 55.25898085 58.04525312 55.25898085 59.8125 53.5 C60.204375 53.005 60.59625 52.51 61 52 C61.474375 52.495 61.94875 52.99 62.4375 53.5 C66.21397435 55.71061913 69.72880235 55.85119953 74 55 C77.06724457 52.68743996 77.06724457 52.68743996 79 50 C80.9451 52.91765 81.45276317 54.62537285 82 58 C84.207809 56.46172153 84.207809 56.46172153 86 54 C85.835 52.88625 85.67 51.7725 85.5 50.625 C85 47 85 47 86.6875 43.5625 C87.8321875 42.2940625 87.8321875 42.2940625 89 41 C90.32 41 91.64 41 93 41 C94.43304064 43.86608129 94.30644155 45.81300783 94 49 C92.08109766 52.37462135 90.02654855 55.52373301 87 58 C86.34 58 85.68 58 85 58 C85.165 58.763125 85.33 59.52625 85.5 60.3125 C85.665 61.529375 85.83 62.74625 86 64 C86.14953125 64.8353125 86.2990625 65.670625 86.453125 66.53125 C86.78830391 69.67134712 86.80980269 71.93462124 86 75 C82.07480251 79.4907491 77.33124254 82.64742413 72.19921875 85.625 C69.8773229 86.81092606 69.8773229 86.81092606 69 89 C68.34 89 67.68 89 67 89 C67 89.66 67 90.32 67 91 C65.02 91.33 63.04 91.66 61 92 C58.03 88.04 55.06 84.08 52 80 C52.66 81.65 53.32 83.3 54 85 C54 85.99 54 86.98 54 88 C52.02 88.495 52.02 88.495 50 89 C49.67 88.34 49.34 87.68 49 87 C47.70450101 88.09966775 46.41373929 89.20491801 45.125 90.3125 C44.40570313 90.92738281 43.68640625 91.54226562 42.9453125 92.17578125 C39.74397841 95.17783551 38.70367567 97.65063097 38 101.8671875 C37.83604736 102.82963379 37.67209473 103.79208008 37.50317383 104.78369141 C37.25410278 106.31388916 37.25410278 106.31388916 37 107.875 C36.82557373 108.91188965 36.65114746 109.9487793 36.47143555 111.01708984 C35.38846811 117.49464264 34.34699317 123.97845781 33.39453125 130.4765625 C33.12551046 132.1972301 32.81227403 133.9114232 32.4609375 135.6171875 C31.42111949 140.99251788 31.90445047 145.02306986 34 150 C34.5 152.5 34.5 152.5 34 155 C28 160 28 160 0 160 C0 107.2 0 54.4 0 0 Z " fill="#9298A1" transform="translate(0,0)"/>
<path d="M0 0 C23.43 0 46.86 0 71 0 C71.08060607 37.03401033 71.08060607 37.03401033 71.09765625 52.51171875 C71.10953958 63.21339832 71.12353552 73.91504649 71.15087891 84.61669922 C71.17078042 92.40944826 71.18370872 100.2021719 71.18817699 107.99494565 C71.19078988 112.12317683 71.19695316 116.25133535 71.21146011 120.3795433 C71.22499294 124.26184639 71.22923141 128.14404657 71.22621536 132.026371 C71.22676746 133.45426237 71.23077047 134.88215704 71.23841095 136.31002808 C71.24830442 138.25360654 71.24479061 140.1972397 71.24050903 142.14083862 C71.24235262 143.23039793 71.24419621 144.31995724 71.24609566 145.44253349 C71 148 71 148 69 150 C68.86722656 149.07316406 68.73445313 148.14632812 68.59765625 147.19140625 C68.33275391 145.39509766 68.33275391 145.39509766 68.0625 143.5625 C67.88847656 142.36753906 67.71445313 141.17257813 67.53515625 139.94140625 C67.31014787 137.12044324 67.31014787 137.12044324 66 136 C65.8386942 132.93518979 66.01849759 130.94450722 67 128 C67.19459037 126.04413253 67.19459037 126.04413253 67.1875 124 C67.20167969 123.319375 67.21585937 122.63875 67.23046875 121.9375 C67.10940411 119.67385868 67.10940411 119.67385868 65 117 C64.875 114.3125 64.875 114.3125 65 112 C64.34 112 63.68 112 63 112 C62.566875 110.88625 62.13375 109.7725 61.6875 108.625 C60.30088881 104.82487666 60.30088881 104.82487666 57 103 C57 102.01 57 101.02 57 100 C56.34 100 55.68 100 55 100 C55 99.34 55 98.68 55 98 C54.34 98 53.68 98 53 98 C52.79375 97.38125 52.5875 96.7625 52.375 96.125 C50.43790682 93.13131054 48.36406407 92.98943061 45 92 C43.7315625 91.2265625 43.7315625 91.2265625 42.4375 90.4375 C40.09262837 88.8107929 40.09262837 88.8107929 37.375 88.8125 C35 88 35 88 34.01953125 86.1640625 C33.25777979 84.12557268 32.58698183 82.09500019 32 80 C29.37098712 81.52206009 27.15634036 82.84365964 25 85 C21.79714801 84.84091795 20.27939827 84.23085035 17.796875 82.1796875 C10.75018262 74.24543462 10.75018262 74.24543462 11 68 C11.66 67.01 12.32 66.02 13 65 C12.34 65 11.68 65 11 65 C10.505 65.99 10.505 65.99 10 67 C9.7525 66.195625 9.505 65.39125 9.25 64.5625 C8.27761141 61.828919 8.27761141 61.828919 5.875 61.1875 C4.946875 61.0946875 4.946875 61.0946875 4 61 C4.66 59.68 5.32 58.36 6 57 C6 57.66 6 58.32 6 59 C6.99 58.505 6.99 58.505 8 58 C8.65555119 55.47266765 8.65555119 55.47266765 9 53 C9.9075 52.9175 10.815 52.835 11.75 52.75 C15.49591685 51.88555765 16.42883937 50.73704196 19 48 C20.65583225 47.30686092 22.32110979 46.63525576 24 46 C24.33 45.34 24.66 44.68 25 44 C24.34 44 23.68 44 23 44 C21.375 41.5 21.375 41.5 20 39 C21.485 38.505 21.485 38.505 23 38 C23 37.01 23 36.02 23 35 C20.55503957 33.28288757 20.55503957 33.28288757 18 32 C18.268125 30.88625 18.53625 29.7725 18.8125 28.625 C19.49669126 22.824692 17.15314141 18.73684592 14 14 C9.74818981 8.65837565 5.34026357 4.27221086 0 0 Z " fill="#9DA1A2" transform="translate(89,0)"/>
<path d="M0 0 C0.9104306 -0.01140015 1.82086121 -0.02280029 2.75888062 -0.0345459 C4.69060611 -0.05346393 6.62239642 -0.06652105 8.55419922 -0.07421875 C11.49173221 -0.09354145 14.42641129 -0.15551714 17.36328125 -0.21875 C19.24217092 -0.2318197 21.12108058 -0.24231686 23 -0.25 C23.87113434 -0.2746936 24.74226868 -0.29938721 25.63980103 -0.3248291 C33.49208431 -0.26830442 37.47850649 3.2301532 43.03515625 8.390625 C47.61931077 13.6098639 52.5660703 19.86842029 53.08984375 27.01953125 C52.8984375 29.40625 52.8984375 29.40625 51.8984375 32.40625 C53.8784375 33.39625 55.8584375 34.38625 57.8984375 35.40625 C56.1484375 39.28125 56.1484375 39.28125 53.8984375 40.40625 C54.8884375 42.38625 54.8884375 42.38625 55.8984375 44.40625 C56.5584375 44.40625 57.2184375 44.40625 57.8984375 44.40625 C57.3359375 46.28125 57.3359375 46.28125 55.8984375 48.40625 C53.57295743 49.09981423 51.23963305 49.76774212 48.8984375 50.40625 C48.5684375 51.39625 48.2384375 52.38625 47.8984375 53.40625 C46.9084375 53.40625 45.9184375 53.40625 44.8984375 53.40625 C44.5684375 54.72625 44.2384375 56.04625 43.8984375 57.40625 C43.8984375 56.08625 43.8984375 54.76625 43.8984375 53.40625 C43.2384375 53.40625 42.5784375 53.40625 41.8984375 53.40625 C41.8984375 55.05625 41.8984375 56.70625 41.8984375 58.40625 C41.2590625 58.53 40.6196875 58.65375 39.9609375 58.78125 C39.2803125 58.9875 38.5996875 59.19375 37.8984375 59.40625 C37.4034375 60.39625 37.4034375 60.39625 36.8984375 61.40625 C38.2184375 61.40625 39.5384375 61.40625 40.8984375 61.40625 C40.36167847 65.25728301 38.78242827 66.72422587 35.8359375 69.15625 C35.10246094 69.76984375 34.36898437 70.3834375 33.61328125 71.015625 C33.04738281 71.47453125 32.48148438 71.9334375 31.8984375 72.40625 C30.9084375 71.91125 30.9084375 71.91125 29.8984375 71.40625 C28.91842429 67.06969153 28.56579251 62.83969875 28.8984375 58.40625 C30.59646238 55.82898894 32.1821161 55.05734732 34.8984375 53.40625 C37.66255513 49.7626404 37.04483401 45.79814536 36.8984375 41.40625 C34.40839246 41.96701801 34.40839246 41.96701801 31.8984375 43.40625 C29.9392966 47.41358365 29.64360848 50.13983133 30.8984375 54.40625 C28.9184375 56.05625 26.9384375 57.70625 24.8984375 59.40625 C24.2384375 56.76625 23.5784375 54.12625 22.8984375 51.40625 C22.2384375 51.40625 21.5784375 51.40625 20.8984375 51.40625 C20.5890625 52.045625 20.2796875 52.685 19.9609375 53.34375 C18.8984375 55.40625 18.8984375 55.40625 17.8984375 56.40625 C13.67353074 56.85187911 10.05388698 57.08261067 6.3359375 54.90625 C5.8615625 54.41125 5.3871875 53.91625 4.8984375 53.40625 C4.5065625 53.921875 4.1146875 54.4375 3.7109375 54.96875 C2.81375 55.6803125 2.81375 55.6803125 1.8984375 56.40625 C-0.7890625 56.09375 -0.7890625 56.09375 -3.1015625 55.40625 C-2.7715625 57.38625 -2.4415625 59.36625 -2.1015625 61.40625 C-2.7615625 61.40625 -3.4215625 61.40625 -4.1015625 61.40625 C-4.1840625 60.6225 -4.2665625 59.83875 -4.3515625 59.03125 C-4.83209256 56.34054328 -4.83209256 56.34054328 -6.7890625 55.15625 C-11.98830198 53.35498283 -11.98830198 53.35498283 -17.1015625 54.40625 C-15.7815625 57.04625 -14.4615625 59.68625 -13.1015625 62.40625 C-17.21312843 61.03572802 -17.61720586 59.13404524 -19.6015625 55.34375 C-19.91198486 54.75754883 -20.22240723 54.17134766 -20.54223633 53.56738281 C-22.2257683 50.3295129 -23.64722181 47.11962313 -24.7890625 43.65625 C-25.2221875 42.58375 -25.6553125 41.51125 -26.1015625 40.40625 C-28.12810914 39.65565335 -28.12810914 39.65565335 -30.1015625 39.40625 C-28.52506567 28.94157274 -25.88988853 21.8633157 -18.43066406 14.18896484 C-14.80062419 10.44812766 -12.99374522 7.26933643 -11.1015625 2.40625 C-7.98842727 -0.70688523 -4.18412778 0.04026365 0 0 Z " fill="#4C6FA5" transform="translate(56.1015625,-0.40625)"/>
<path d="M0 0 C7.01204864 0.1558233 12.89112559 3.23534053 18 8 C18.9800814 11.12537067 18.63586767 12.70504934 18 16 C18.66 16 19.32 16 20 16 C20 17.32 20 18.64 20 20 C20.99580078 19.96519531 20.99580078 19.96519531 22.01171875 19.9296875 C31.19698433 19.74195944 31.19698433 19.74195944 35 22 C37 25 37 25 37 28 C37.66 28.33 38.32 28.66 39 29 C39.39465208 31.58317727 39.50806152 34.14188281 39.65625 36.75 C39.7696875 37.4925 39.883125 38.235 40 39 C40.66 39.33 41.32 39.66 42 40 C42 43.96 42 47.92 42 52 C17.58 52 -6.84 52 -32 52 C-35 39 -35 39 -35 36 C-30.65714286 32 -30.65714286 32 -28 32 C-27.7525 30.80375 -27.505 29.6075 -27.25 28.375 C-26.20777614 24.19121564 -24.69101756 21.36377195 -22 18 C-21.34 18 -20.68 18 -20 18 C-19.34 17.34 -18.68 16.68 -18 16 C-17.01 16.99 -16.02 17.98 -15 19 C-14.4465236 16.92446352 -14 15.15634036 -14 13 C-15.32 12.67 -16.64 12.34 -18 12 C-16.74337038 8.12539202 -15.60395437 6.0139745 -12 4 C-10.68 4 -9.36 4 -8 4 C-7.34 4.66 -6.68 5.32 -6 6 C-5.34 4.68 -4.68 3.36 -4 2 C-2.515 2.495 -2.515 2.495 -1 3 C-0.67 2.01 -0.34 1.02 0 0 Z " fill="#5C7DB0" transform="translate(118,108)"/>
<path d="M0 0 C0.33 0 0.66 0 1 0 C1.66 3.3 2.32 6.6 3 10 C4.65 10 6.3 10 8 10 C10.02613283 11.29327628 12.02514795 12.6296945 14 14 C15.093125 14.33 16.18625 14.66 17.3125 15 C18.199375 15.33 19.08625 15.66 20 16 C20.875 18.125 20.875 18.125 21 20 C21.66 20 22.32 20 23 20 C23 20.66 23 21.32 23 22 C23.66 22 24.32 22 25 22 C25.495 23.485 25.495 23.485 26 25 C27.2684375 26.2065625 27.2684375 26.2065625 28.5625 27.4375 C31 30 31 30 31 34 C31.66 34 32.32 34 33 34 C33.309375 35.134375 33.61875 36.26875 33.9375 37.4375 C34.62924531 40.78775099 34.62924531 40.78775099 36 42 C36.203125 44.1796875 36.203125 44.1796875 36.25 46.875 C36.27578125 47.75929687 36.3015625 48.64359375 36.328125 49.5546875 C35.94503183 52.40964372 35.21462117 53.23995897 33 55 C32.67 54.01 32.34 53.02 32 52 C28.32612505 51.14701624 24.9552607 50.89210529 21.1875 50.9375 C20.21167969 50.94652344 19.23585937 50.95554688 18.23046875 50.96484375 C17.49441406 50.97644531 16.75835937 50.98804688 16 51 C16.33 49.35 16.66 47.7 17 46 C16.34 46 15.68 46 15 46 C14.90203125 45.33613281 14.8040625 44.67226562 14.703125 43.98828125 C13.48042393 36.70375644 13.48042393 36.70375644 9 31 C4.98523068 28.37701738 1.91400814 27.05253962 -2.94140625 26.7734375 C-6.54332204 26.37499178 -6.97184059 26.02717481 -9.79296875 23.3046875 C-10.61531498 22.17871847 -11.41305005 21.03443385 -12.1875 19.875 C-12.60821777 19.2869458 -13.02893555 18.6988916 -13.46240234 18.09301758 C-14.66239558 16.40879615 -15.83186639 14.70638612 -17 13 C-18.03930113 11.56078881 -19.08032648 10.12281631 -20.125 8.6875 C-20.74375 7.800625 -21.3625 6.91375 -22 6 C-21.01 5.67 -20.02 5.34 -19 5 C-18.26676204 2.98491642 -18.26676204 2.98491642 -18 1 C-15.72761793 2.05503453 -13.92535422 3.06298238 -12 4.6875 C-10.11005222 6.21306616 -10.11005222 6.21306616 -7.9375 5.875 C-5.91489802 5.09896082 -5.91489802 5.09896082 -4.4375 3.4375 C-3.963125 2.963125 -3.48875 2.48875 -3 2 C-2.01 2 -1.02 2 0 2 C0 1.34 0 0.68 0 0 Z " fill="#5E9ABB" transform="translate(121,78)"/>
<path d="M0 0 C0.53625 0.680625 1.0725 1.36125 1.625 2.0625 C3.94790138 4.93556223 6.36356826 7.69794378 8.828125 10.44921875 C10 12 10 12 10 14 C11.98 13.67 13.96 13.34 16 13 C16 13.99 16 14.98 16 16 C15.01 16 14.02 16 13 16 C14.32 16 15.64 16 17 16 C17.99 15.67 18.98 15.34 20 15 C20.495 16.98 20.495 16.98 21 19 C20.34 19 19.68 19 19 19 C18.731875 19.639375 18.46375 20.27875 18.1875 20.9375 C17 23 17 23 14 24 C15.98 24.33 17.96 24.66 20 25 C18 27 18 27 15.8359375 27.1953125 C13.55729167 27.13020833 11.27864583 27.06510417 9 27 C8.01 30.3 7.02 33.6 6 37 C5.67 37 5.34 37 5 37 C5.01160156 36.26394531 5.02320312 35.52789062 5.03515625 34.76953125 C5.04417969 33.79371094 5.05320312 32.81789062 5.0625 31.8125 C5.07410156 30.84957031 5.08570312 29.88664062 5.09765625 28.89453125 C5.00486622 26.14423487 4.62111685 23.67520409 4 21 C3.01 21.33 2.02 21.66 1 22 C-0.17065642 24.66058277 -1.08502362 27.24704476 -2 30 C-2.41765625 31.09054688 -2.8353125 32.18109375 -3.265625 33.3046875 C-6.44547742 41.94876908 -7.5853628 49.5640199 -7.89208984 58.83203125 C-8.09168677 62.84203277 -8.54981174 66.82414468 -9 70.8125 C-9.12507935 71.96939331 -9.12507935 71.96939331 -9.25268555 73.1496582 C-9.6034698 76.24507816 -10.01181867 79.03545601 -11 82 C-14.96 82 -18.92 82 -23 82 C-21.71937515 80.2925002 -20.38232443 78.62626404 -19 77 C-18.34 77 -17.68 77 -17 77 C-17.2165625 76.35933594 -17.433125 75.71867187 -17.65625 75.05859375 C-19.77940989 68.46303686 -20.85330962 63.29082277 -19.07421875 56.4296875 C-17.83076658 51.58372592 -17.16397714 46.70328747 -16.5 41.75 C-16.23453237 39.88669632 -15.96890833 38.02341492 -15.703125 36.16015625 C-15.28742647 33.18834257 -14.92006103 30.23178653 -14.609375 27.24609375 C-13.75729242 19.99413005 -11.58538061 15.78233233 -6 11 C-3.0625 9 -3.0625 9 -1 8 C-1 8.99 -1 9.98 -1 11 C0.32 10.34 1.64 9.68 3 9 C2.505 8.2575 2.01 7.515 1.5 6.75 C0 4 0 4 0 0 Z " fill="#4D6C9C" transform="translate(51,78)"/>
<path d="M0 0 C7.01204864 0.1558233 12.89112559 3.23534053 18 8 C18.9800814 11.12537067 18.63586767 12.70504934 18 16 C18.66 16 19.32 16 20 16 C20 17.32 20 18.64 20 20 C20.99580078 19.96519531 20.99580078 19.96519531 22.01171875 19.9296875 C31.19698433 19.74195944 31.19698433 19.74195944 35 22 C37 25 37 25 37 28 C37.66 28.33 38.32 28.66 39 29 C39.39465208 31.58317727 39.50806152 34.14188281 39.65625 36.75 C39.7696875 37.4925 39.883125 38.235 40 39 C40.99 39.495 40.99 39.495 42 40 C42 43.96 42 47.92 42 52 C31.44 52 20.88 52 10 52 C10 39 10 39 12 37 C12.33 38.32 12.66 39.64 13 41 C13.66 41 14.32 41 15 41 C15.33 40.34 15.66 39.68 16 39 C16.33 40.32 16.66 41.64 17 43 C16.85795259 41.41632253 16.71119847 39.83306682 16.5625 38.25 C16.48128906 37.36828125 16.40007812 36.4865625 16.31640625 35.578125 C16.07053791 33.08460059 16.07053791 33.08460059 15.48046875 31.05078125 C14.84570067 28.34140529 14.84456981 25.71717687 14.75 22.9375 C14.23714829 16.34475412 13.20523153 10.28954011 9 5 C5.74087079 3.28073459 2.63939518 2.48760829 -1 2 C-0.67 1.34 -0.34 0.68 0 0 Z " fill="#6C7C8B" transform="translate(118,108)"/>
<path d="M0 0 C1.32 0 2.64 0 4 0 C5.43304064 2.86608129 5.30644155 4.81300783 5 8 C3.08109766 11.37462135 1.02654855 14.52373301 -2 17 C-2.66 17 -3.32 17 -4 17 C-3.7525 18.1446875 -3.7525 18.1446875 -3.5 19.3125 C-3.335 20.529375 -3.17 21.74625 -3 23 C-2.85046875 23.8353125 -2.7009375 24.670625 -2.546875 25.53125 C-2.21169609 28.67134712 -2.19019731 30.93462124 -3 34 C-6.92519749 38.4907491 -11.66875746 41.64742413 -16.80078125 44.625 C-19.1226771 45.81092606 -19.1226771 45.81092606 -20 48 C-20.66 48 -21.32 48 -22 48 C-22 48.66 -22 49.32 -22 50 C-24.97 50.495 -24.97 50.495 -28 51 C-28 50.34 -28 49.68 -28 49 C-27.42507812 48.96519531 -26.85015625 48.93039063 -26.2578125 48.89453125 C-22.84092998 47.54078368 -21.62168628 44.74586134 -19.875 41.6875 C-19.52824219 41.10548828 -19.18148437 40.52347656 -18.82421875 39.92382812 C-17.8613426 38.29505487 -16.92962757 36.64797614 -16 35 C-15.59007812 34.28457031 -15.18015625 33.56914063 -14.7578125 32.83203125 C-13.74517615 30.71438656 -13.74517615 30.71438656 -14 27 C-15.010625 27.680625 -16.02125 28.36125 -17.0625 29.0625 C-19.91445407 30.66097426 -21.15993445 31.0084176 -24.5625 31.1875 C-29.1792013 29.59263955 -31.2219553 26.89740338 -34 23 C-35.98 23.66 -37.96 24.32 -40 25 C-39.67 27.64 -39.34 30.28 -39 33 C-44.75 37 -44.75 37 -47 37 C-46.82082031 36.45472656 -46.64164063 35.90945312 -46.45703125 35.34765625 C-44.64528358 28.92418724 -45.44403027 25.04912836 -48 19 C-48.56713479 17.48088894 -49.12991299 15.96014146 -49.6875 14.4375 C-50.3371875 12.7359375 -50.3371875 12.7359375 -51 11 C-49.4156683 11.08768248 -47.83246433 11.19587329 -46.25 11.3125 C-44.92742188 11.39951172 -44.92742188 11.39951172 -43.578125 11.48828125 C-40.62993358 12.07345258 -39.1554959 12.92433729 -37 15 C-36.75 17.6875 -36.75 17.6875 -37 20 C-35.70366379 18.93354885 -35.70366379 18.93354885 -35.9375 16.4375 C-35.958125 15.633125 -35.97875 14.82875 -36 14 C-35.236875 14.061875 -34.47375 14.12375 -33.6875 14.1875 C-30.95474688 14.25898085 -30.95474688 14.25898085 -29.1875 12.5 C-28.795625 12.005 -28.40375 11.51 -28 11 C-27.525625 11.495 -27.05125 11.99 -26.5625 12.5 C-22.78602565 14.71061913 -19.27119765 14.85119953 -15 14 C-11.93275543 11.68743996 -11.93275543 11.68743996 -10 9 C-8.0549 11.91765 -7.54723683 13.62537285 -7 17 C-4.792191 15.46172153 -4.792191 15.46172153 -3 13 C-3.2475 11.329375 -3.2475 11.329375 -3.5 9.625 C-4 6 -4 6 -2.3125 2.5625 C-1.549375 1.716875 -0.78625 0.87125 0 0 Z " fill="#F3D6C2" transform="translate(89,41)"/>
<path d="M0 0 C5.73889362 3.71340176 9.83222373 9.7372584 11.63671875 16.32421875 C12.10010414 19.57995245 12.04470247 21.86589259 11 25 C12.98 25.99 14.96 26.98 17 28 C15.25 31.875 15.25 31.875 13 33 C13.66 34.32 14.32 35.64 15 37 C15.66 37 16.32 37 17 37 C16.4375 38.875 16.4375 38.875 15 41 C12.67451993 41.69356423 10.34119555 42.36149212 8 43 C7.67 43.99 7.34 44.98 7 46 C6.01 46 5.02 46 4 46 C3.67 47.32 3.34 48.64 3 50 C3 48.68 3 47.36 3 46 C2.34 46 1.68 46 1 46 C1 47.65 1 49.3 1 51 C0.360625 51.12375 -0.27875 51.2475 -0.9375 51.375 C-1.618125 51.58125 -2.29875 51.7875 -3 52 C-3.33 52.66 -3.66 53.32 -4 54 C-2.68 54 -1.36 54 0 54 C-0.53675903 57.85103301 -2.11600923 59.31797587 -5.0625 61.75 C-6.16271484 62.67039062 -6.16271484 62.67039062 -7.28515625 63.609375 C-8.13400391 64.29773438 -8.13400391 64.29773438 -9 65 C-9.66 64.67 -10.32 64.34 -11 64 C-11.98001321 59.66344153 -12.33264499 55.43344875 -12 51 C-10.30197512 48.42273894 -8.7163214 47.65109732 -6 46 C-3.88745162 42.8814762 -3.50454918 39.70002732 -3 36 C-2.67 36.66 -2.34 37.32 -2 38 C-1.01 37.34 -0.02 36.68 1 36 C0.67 34.68 0.34 33.36 0 32 C0.49371094 31.68546875 0.98742187 31.3709375 1.49609375 31.046875 C2.13675781 30.61890625 2.77742188 30.1909375 3.4375 29.75 C4.07558594 29.33234375 4.71367188 28.9146875 5.37109375 28.484375 C7.40203623 26.63363605 7.74811669 25.72712121 8 23 C7.07095512 16.68770444 5.80140425 10.49163624 1 6 C0.34 5.67 -0.32 5.34 -1 5 C-0.67 3.35 -0.34 1.7 0 0 Z " fill="#4E71A5" transform="translate(97,7)"/>
<path d="M0 0 C0.99 0.33 1.98 0.66 3 1 C2.34 1.66 1.68 2.32 1 3 C1 3.99 1 4.98 1 6 C2.32 5.67 3.64 5.34 5 5 C5.99 6.485 5.99 6.485 7 8 C5.7934375 8.3403125 5.7934375 8.3403125 4.5625 8.6875 C1.80394254 9.75355159 1.80394254 9.75355159 1 12.375 C1 15.62199634 1.96639552 16.55967462 4 19 C4 19.99 4 20.98 4 22 C3.34 22 2.68 22 2 22 C2 21.34 2 20.68 2 20 C1.34 20 0.68 20 0 20 C-1.625 18 -1.625 18 -3 16 C-3.33 17.32 -3.66 18.64 -4 20 C-4.33 19.67 -4.66 19.34 -5 19 C-5.33 20.65 -5.66 22.3 -6 24 C-6.66 23.01 -7.32 22.02 -8 21 C-8.99 23.64 -9.98 26.28 -11 29 C-11.66 27.68 -12.32 26.36 -13 25 C-13.99 25.33 -14.98 25.66 -16 26 C-15.01 29.3 -14.02 32.6 -13 36 C-12.34 36 -11.68 36 -11 36 C-9.5625 37.93359375 -9.5625 37.93359375 -8 40.4375 C-6.0470084 43.81006651 -6.0470084 43.81006651 -3 46 C-3 46.66 -3 47.32 -3 48 C-2.34 48.33 -1.68 48.66 -1 49 C-1.99 49.495 -1.99 49.495 -3 50 C-3.66 49.67 -4.32 49.34 -5 49 C-5 49.66 -5 50.32 -5 51 C-3.515 51.495 -3.515 51.495 -2 52 C-3.98 52.66 -5.96 53.32 -8 54 C-6.68 56.64 -5.36 59.28 -4 62 C-8.11156593 60.62947802 -8.51564336 58.72779524 -10.5 54.9375 C-10.81042236 54.35129883 -11.12084473 53.76509766 -11.44067383 53.16113281 C-13.1242058 49.9232629 -14.54565931 46.71337313 -15.6875 43.25 C-16.120625 42.1775 -16.55375 41.105 -17 40 C-19.02654664 39.24940335 -19.02654664 39.24940335 -21 39 C-19.42350317 28.53532274 -16.78832603 21.4570657 -9.32910156 13.78271484 C-5.69906169 10.04187766 -3.89218272 6.86308643 -2 2 C-1.34 1.34 -0.68 0.68 0 0 Z " fill="#425B88" transform="translate(47,0)"/>
<path d="M0 0 C1.9375 1.5 1.9375 1.5 3.75 4.0625 C5.79929257 6.75450849 5.79929257 6.75450849 9.1875 7.5625 C13.94275169 7.48324581 16.9329357 5.92354151 20.9375 3.5 C20.76908191 10.91039582 16.87201125 16.40923914 12.9375 22.5 C12.45023438 23.27988281 11.96296875 24.05976562 11.4609375 24.86328125 C10.95820312 25.40339844 10.45546875 25.94351563 9.9375 26.5 C8.6175 26.5 7.2975 26.5 5.9375 26.5 C3.9375 24.12109375 3.9375 24.12109375 1.9375 20.9375 C1.24527344 19.84179688 0.55304687 18.74609375 -0.16015625 17.6171875 C-1.10181641 16.07417969 -1.10181641 16.07417969 -2.0625 14.5 C-2.51496094 13.78070313 -2.96742187 13.06140625 -3.43359375 12.3203125 C-5.38762821 9.09937657 -6.60773262 6.25183087 -7.0625 2.5 C-2.69600785 -0.65357766 -2.69600785 -0.65357766 0 0 Z " fill="#415A8A" transform="translate(55.0625,63.5)"/>
<path d="M0 0 C0.33 0 0.66 0 1 0 C1.66 3.96 2.32 7.92 3 12 C3.66 12 4.32 12 5 12 C6.43414027 14.86828054 6.38938208 17.55906016 6.625 20.75 C6.72039063 21.96171875 6.81578125 23.1734375 6.9140625 24.421875 C6.99578466 27.82448861 6.6593074 30.67289907 6 34 C5.64249731 36.29114861 5.28834354 38.58282223 4.9375 40.875 C4.76089844 42.02742188 4.58429687 43.17984375 4.40234375 44.3671875 C4.26957031 45.23601562 4.13679688 46.10484375 4 47 C0.04 47 -3.92 47 -8 47 C-6.71937515 45.2925002 -5.38232443 43.62626404 -4 42 C-3.34 42 -2.68 42 -2 42 C-2.2165625 41.35933594 -2.433125 40.71867187 -2.65625 40.05859375 C-5.0362277 32.6652371 -5.69904038 27.1888571 -3.57421875 19.59375 C-2.60966582 15.23685788 -2.18274176 10.80388977 -1.69775391 6.37133789 C-1.10032672 1.10032672 -1.10032672 1.10032672 0 0 Z " fill="#3F5A88" transform="translate(36,113)"/>
<path d="M0 0 C1.5843317 0.08768248 3.16753567 0.19587329 4.75 0.3125 C6.07257812 0.39951172 6.07257812 0.39951172 7.421875 0.48828125 C10.37006642 1.07345258 11.8445041 1.92433729 14 4 C14.25 6.6875 14.25 6.6875 14 9 C15.29633621 7.93354885 15.29633621 7.93354885 15.0625 5.4375 C15.041875 4.633125 15.02125 3.82875 15 3 C24 3 24 3 25.52734375 4.49609375 C25.99269531 5.13675781 26.45804688 5.77742188 26.9375 6.4375 C29.25841815 9.39939665 29.25841815 9.39939665 32.6875 10.875 C33.450625 10.91625 34.21375 10.9575 35 11 C35.99 11.33 36.98 11.66 38 12 C32.00950643 14.67432749 28.4320034 15.50080079 22 14 C21.29875 13.443125 20.5975 12.88625 19.875 12.3125 C19.25625 11.879375 18.6375 11.44625 18 11 C14.78683477 11.48762261 14.78683477 11.48762261 12 13 C10.84058962 16.47823115 11.29179116 18.45895578 12 22 C6.25 26 6.25 26 4 26 C4.17917969 25.45472656 4.35835937 24.90945312 4.54296875 24.34765625 C6.35471642 17.92418724 5.55596973 14.04912836 3 8 C2.43286521 6.48088894 1.87008701 4.96014146 1.3125 3.4375 C0.6628125 1.7359375 0.6628125 1.7359375 0 0 Z " fill="#D6D0C9" transform="translate(38,52)"/>
<path d="M0 0 C6.21203158 2.7332939 10.94366259 6.59155012 15 12 C15.66 12.33 16.32 12.66 17 13 C17 14.32 17 15.64 17 17 C17.66 17 18.32 17 19 17 C19.433125 17.886875 19.86625 18.77375 20.3125 19.6875 C21.76784817 22.54429455 23.31627474 25.27396863 25 28 C24.175 27.690625 23.35 27.38125 22.5 27.0625 C18.98715356 25.83994879 18.98715356 25.83994879 15.10546875 25.81640625 C11.49901555 25.38935903 11.02439646 25.02354344 8.20703125 22.3046875 C7.38468502 21.17871847 6.58694995 20.03443385 5.8125 18.875 C5.39178223 18.2869458 4.97106445 17.6988916 4.53759766 17.09301758 C3.33760442 15.40879615 2.16813361 13.70638612 1 12 C-0.03930113 10.56078881 -1.08032648 9.12281631 -2.125 7.6875 C-2.74375 6.800625 -3.3625 5.91375 -4 5 C-3.01 4.67 -2.02 4.34 -1 4 C-0.26676204 1.98491642 -0.26676204 1.98491642 0 0 Z " fill="#4DCCEA" transform="translate(103,79)"/>
<path d="M0 0 C2.46800047 1.15173355 4.04783565 2.04783565 6 4 C11.40761996 6.43939954 16.57013436 6.23265086 22.375 6.125 C23.30183594 6.11597656 24.22867188 6.10695313 25.18359375 6.09765625 C27.45600077 6.07422937 29.7278618 6.04142748 32 6 C34.0078125 10.7421875 34.0078125 10.7421875 33.9375 13.0625 C32.58528243 15.85708298 30.485624 17.21544944 28 19 C27.34 16.36 26.68 13.72 26 11 C25.34 11 24.68 11 24 11 C23.690625 11.639375 23.38125 12.27875 23.0625 12.9375 C22 15 22 15 21 16 C16.45146132 16.58412813 12.37796715 16.66085087 8.4375 14.125 C7.633125 13.42375 6.82875 12.7225 6 12 C6 11.34 6 10.68 6 10 C5.01 9.67 4.02 9.34 3 9 C1.16825705 6.15062207 0.55260426 3.31562557 0 0 Z " fill="#4D5B7C" transform="translate(53,40)"/>
<path d="M0 0 C0.66 1.32 1.32 2.64 2 4 C0 6 0 6 -1.98828125 6.08984375 C-3.13876953 6.01443359 -3.13876953 6.01443359 -4.3125 5.9375 C-8.39361652 5.82559842 -10.69144992 6.43854188 -14 9 C-13.5359375 9.99 -13.5359375 9.99 -13.0625 11 C-11.75039745 14.70476015 -11.39735865 18.09263991 -11 22 C-13.15377564 19.37801226 -14.40072174 17.35595828 -15 14 C-17.62901288 15.52206009 -19.84365964 16.84365964 -22 19 C-25.27441738 18.85362704 -26.72275559 18.24234308 -29.203125 16.07421875 C-29.87859375 15.28660156 -30.5540625 14.49898437 -31.25 13.6875 C-31.93578125 12.90761719 -32.6215625 12.12773438 -33.328125 11.32421875 C-34.91950812 9.11189876 -35.58611662 7.65980934 -36 5 C-35.34 4.67 -34.68 4.34 -34 4 C-34 4.66 -34 5.32 -34 6 C-32.34385343 6.38218767 -30.67542976 6.71395102 -29 7 C-28.67 6.67 -28.34 6.34 -28 6 C-24.87269953 6.00754475 -21.75880036 6.0781115 -18.63476562 6.21484375 C-14.27584614 6.30858395 -12.29306909 5.77424858 -9 3 C-6.26286305 2.62539184 -3.77974416 2.86101279 -1 3 C-0.67 2.01 -0.34 1.02 0 0 Z " fill="#8894A0" transform="translate(136,66)"/>
<path d="M0 0 C0.33 0 0.66 0 1 0 C1.05429959 1.74965358 1.09292823 3.49979787 1.125 5.25 C1.14820312 6.22453125 1.17140625 7.1990625 1.1953125 8.203125 C0.95190272 11.68875298 -0.04488974 13.79354493 -2.1875 16.5 C-6.21485186 19.83298085 -9.29973201 21.87855229 -14.5 22.25 C-19.47729503 20.47239463 -21.8901726 17.14958733 -25 13 C-22 13 -22 13 -19.25 14.5625 C-14.43841991 16.69069889 -10.85195466 15.61731822 -6 14 C-6.73605469 13.92910156 -7.47210938 13.85820313 -8.23046875 13.78515625 C-11.76993213 12.78172587 -12.98151515 11.24258346 -15.3125 8.4375 C-16.00988281 7.61121094 -16.70726562 6.78492188 -17.42578125 5.93359375 C-17.94527344 5.29550781 -18.46476562 4.65742187 -19 4 C-18.67 3.34 -18.34 2.68 -18 2 C-17.525625 2.495 -17.05125 2.99 -16.5625 3.5 C-12.78688302 5.71011726 -9.2704586 5.85256927 -5 5 C-1.99666733 2.66663334 -1.99666733 2.66663334 0 0 Z " fill="#F9F5E9" transform="translate(79,50)"/>
<path d="M0 0 C0.66 1.32 1.32 2.64 2 4 C1.0234375 6.296875 1.0234375 6.296875 -0.625 8.75 C-1.46804687 10.06871094 -1.46804687 10.06871094 -2.328125 11.4140625 C-2.87984375 12.26742187 -3.4315625 13.12078125 -4 14 C-7.37770593 19.59559718 -8.46901111 23.43384448 -8 30 C-9.98 30 -11.96 30 -14 30 C-14.50404808 27.89679937 -15.00310508 25.79240209 -15.5 23.6875 C-15.91765625 21.92986328 -15.91765625 21.92986328 -16.34375 20.13671875 C-17 17 -17 17 -17 14 C-12.65714286 10 -12.65714286 10 -10 10 C-9.87882812 9.43410156 -9.75765625 8.86820313 -9.6328125 8.28515625 C-9.38144531 7.18494141 -9.38144531 7.18494141 -9.125 6.0625 C-8.96257812 5.33160156 -8.80015625 4.60070312 -8.6328125 3.84765625 C-8 2 -8 2 -6 1 C-5.34 2.65 -4.68 4.3 -4 6 C-5.32 6.33 -6.64 6.66 -8 7 C-7.34 8.32 -6.68 9.64 -6 11 C-4.02 7.37 -2.04 3.74 0 0 Z " fill="#415F8E" transform="translate(100,130)"/>
<path d="M0 0 C0.33 0.66 0.66 1.32 1 2 C3.31 2 5.62 2 8 2 C7.34 2.66 6.68 3.32 6 4 C5.01 4 4.02 4 3 4 C3.89767656 7.1315587 3.89767656 7.1315587 6 10 C5.34 10 4.68 10 4 10 C4 11.65 4 13.3 4 15 C3.360625 15.12375 2.72125 15.2475 2.0625 15.375 C1.381875 15.58125 0.70125 15.7875 0 16 C-0.33 16.66 -0.66 17.32 -1 18 C0.32 18 1.64 18 3 18 C2.46324097 21.85103301 0.88399077 23.31797587 -2.0625 25.75 C-3.16271484 26.67039062 -3.16271484 26.67039062 -4.28515625 27.609375 C-4.85105469 28.06828125 -5.41695313 28.5271875 -6 29 C-6.66 28.67 -7.32 28.34 -8 28 C-8.98001321 23.66344153 -9.33264499 19.43344875 -9 15 C-7.30197512 12.42273894 -5.7163214 11.65109732 -3 10 C-0.88745162 6.8814762 -0.50454918 3.70002732 0 0 Z " fill="#44618F" transform="translate(94,43)"/>
<path d="M0 0 C6 7.5 6 7.5 12 15 C11.67 15.66 11.34 16.32 11 17 C9.35 15.68 7.7 14.36 6 13 C6.7734375 14.1446875 6.7734375 14.1446875 7.5625 15.3125 C8.036875 16.199375 8.51125 17.08625 9 18 C8.67 18.99 8.34 19.98 8 21 C7.60167969 20.50628906 7.20335938 20.01257813 6.79296875 19.50390625 C6.26316406 18.86324219 5.73335937 18.22257812 5.1875 17.5625 C4.66542969 16.92441406 4.14335938 16.28632812 3.60546875 15.62890625 C1.99165589 13.7451725 1.99165589 13.7451725 -1 13 C-1.33 13.66 -1.66 14.32 -2 15 C-2.66 15 -3.32 15 -4 15 C-4.268125 15.763125 -4.53625 16.52625 -4.8125 17.3125 C-6 20 -6 20 -7.46875 21.15625 C-9.88624329 24.06710926 -10.10650859 27.55233515 -10.6875 31.1875 C-10.81705078 31.93708984 -10.94660156 32.68667969 -11.08007812 33.45898438 C-11.39740538 35.30418359 -11.70013291 37.151883 -12 39 C-12.33 39 -12.66 39 -13 39 C-15.07176571 20.88604843 -15.07176571 20.88604843 -10.1875 14.70703125 C-5.01992832 9.33997611 -5.01992832 9.33997611 -1 8 C-1 8.99 -1 9.98 -1 11 C0.32 10.34 1.64 9.68 3 9 C2.505 8.2575 2.01 7.515 1.5 6.75 C0 4 0 4 0 0 Z " fill="#456394" transform="translate(51,78)"/>
<path d="M0 0 C0.45375 0.495 0.9075 0.99 1.375 1.5 C2.87635519 3.22609337 2.87635519 3.22609337 5 3 C4.773125 4.19625 4.54625 5.3925 4.3125 6.625 C3.73286642 10.9493716 5.02521168 13.13628373 7 17 C6.3125 19.8125 6.3125 19.8125 5 22 C4.34 22.33 3.68 22.66 3 23 C3.66 23.99 4.32 24.98 5 26 C-1.75 30 -1.75 30 -4 30 C-3.67 28.68 -3.34 27.36 -3 26 C-3.99 26.33 -4.98 26.66 -6 27 C-5.67 26.01 -5.34 25.02 -5 24 C-5 23.01 -5 22.02 -5 21 C-4.34 20.01 -3.68 19.02 -3 18 C-3 18.66 -3 19.32 -3 20 C-1.68 19.34 -0.36 18.68 1 18 C1 17.01 1 16.02 1 15 C0.34 14.67 -0.32 14.34 -1 14 C-1.625 11.9375 -1.625 11.9375 -2 10 C-3.65 9.67 -5.3 9.34 -7 9 C-6.57847656 8.51789063 -6.15695313 8.03578125 -5.72265625 7.5390625 C-5.17480469 6.90742187 -4.62695312 6.27578125 -4.0625 5.625 C-3.51722656 4.99851562 -2.97195312 4.37203125 -2.41015625 3.7265625 C-0.93041376 2.04367666 -0.93041376 2.04367666 0 0 Z M-9 27 C-8.01 27.33 -7.02 27.66 -6 28 C-6.99 28 -7.98 28 -9 28 C-9 27.67 -9 27.34 -9 27 Z M-6 29 C-5.01 29.495 -5.01 29.495 -4 30 C-4.33 30.66 -4.66 31.32 -5 32 C-5.33 31.01 -5.66 30.02 -6 29 Z " fill="#6988B5" transform="translate(97,62)"/>
<path d="M0 0 C2.0625 0.4375 2.0625 0.4375 4 1 C3.814375 2.0725 3.62875 3.145 3.4375 4.25 C2.76775571 8.07210322 2.76775571 8.07210322 4 12 C6.64 12.66 9.28 13.32 12 14 C11.1654738 16.50357861 10.20628008 18.66785852 9 21 C9.99 21.33 10.98 21.66 12 22 C11.34 22 10.68 22 10 22 C10.66 22.99 11.32 23.98 12 25 C11.625 27.1875 11.625 27.1875 11 29 C8.525 28.01 8.525 28.01 6 27 C6 26.34 6 25.68 6 25 C5.34 25 4.68 25 4 25 C2.375 22.5 2.375 22.5 1 20 C1.99 19.67 2.98 19.34 4 19 C4 18.01 4 17.02 4 16 C1.55503957 14.28288757 1.55503957 14.28288757 -1 13 C-0.814375 11.7625 -0.62875 10.525 -0.4375 9.25 C-0.04266262 6.19406688 -0.05100076 3.96562263 -1 1 C-0.67 0.67 -0.34 0.34 0 0 Z " fill="#8F9094" transform="translate(108,19)"/>
<path d="M0 0 C0.99 0.33 1.98 0.66 3 1 C2.34 1.66 1.68 2.32 1 3 C1 3.99 1 4.98 1 6 C2.32 5.67 3.64 5.34 5 5 C5.99 6.485 5.99 6.485 7 8 C5.7934375 8.3403125 5.7934375 8.3403125 4.5625 8.6875 C1.80394254 9.75355159 1.80394254 9.75355159 1 12.375 C1 15.62199634 1.96639552 16.55967462 4 19 C4 19.99 4 20.98 4 22 C3.34 22 2.68 22 2 22 C2 21.34 2 20.68 2 20 C1.34 20 0.68 20 0 20 C-1.625 18 -1.625 18 -3 16 C-3.33 17.32 -3.66 18.64 -4 20 C-4.33 19.67 -4.66 19.34 -5 19 C-5.33 20.65 -5.66 22.3 -6 24 C-6.99 23.01 -7.98 22.02 -9 21 C-5.15533981 5.15533981 -5.15533981 5.15533981 0 0 Z " fill="#466598" transform="translate(47,0)"/>
<path d="M0 0 C5.77489547 0.12833101 10.92844356 1.83425004 15.7890625 4.95703125 C20.57745515 11.54741619 18.91251006 20.97648727 18.40161133 28.77270508 C18 31 18 31 16 33 C14.98972402 29.61883441 14.86964349 26.45416388 14.75 22.9375 C14.23714829 16.34475412 13.20523153 10.28954011 9 5 C5.74087079 3.28073459 2.63939518 2.48760829 -1 2 C-0.67 1.34 -0.34 0.68 0 0 Z " fill="#1A335C" transform="translate(118,108)"/>
<path d="M0 0 C0.99 0 1.98 0 3 0 C5.7272209 7.68580435 -0.09963199 16.94783616 -3 24 C-5.14650403 20.50231017 -5.29840526 17.62648263 -5.3125 13.5625 C-5.32925781 12.45003906 -5.34601562 11.33757812 -5.36328125 10.19140625 C-4.8535742 5.71365725 -3.14341352 3.14341352 0 0 Z " fill="#5D7EAE" transform="translate(45,97)"/>
<path d="M0 0 C0.36240834 4.46970282 0.36240834 4.46970282 -1.22265625 6.7890625 C-4.49762563 9.02036032 -8.19951738 8.535086 -12 8 C-14.5625 6.5 -14.5625 6.5 -16 5 C-15 2 -15 2 -13.0625 0.8125 C-8.70065683 -0.3447237 -4.4860872 -0.15679528 0 0 Z " fill="#C6A99C" transform="translate(77,48)"/>
<path d="M0 0 C2.42654215 1.87861328 4.12278195 4.03716837 5.9375 6.5 C5.2775 7.16 4.6175 7.82 3.9375 8.5 C3.9375 7.51 3.9375 6.52 3.9375 5.5 C2.6175 5.83 1.2975 6.16 -0.0625 6.5 C-0.84920551 8.75760857 -0.84920551 8.75760857 -1.0625 11.5 C-0.11523046 13.19719127 0.87978261 14.86935236 1.9375 16.5 C1.6075 17.16 1.2775 17.82 0.9375 18.5 C-0.22177975 16.96841892 -1.36437547 15.42420207 -2.5 13.875 C-3.45712891 12.58722656 -3.45712891 12.58722656 -4.43359375 11.2734375 C-6.19427927 8.27562762 -6.70507635 5.93328069 -7.0625 2.5 C-2.69600785 -0.65357766 -2.69600785 -0.65357766 0 0 Z " fill="#395286" transform="translate(55.0625,63.5)"/>
<path d="M0 0 C5.72963895 3.70741344 9.95816488 9.79206855 11.6015625 16.4296875 C11.875 18.625 11.875 18.625 12 22 C11.01 22.66 10.02 23.32 9 24 C6.99090265 20.98635397 6.64182412 19.59510477 6.125 16.125 C5.32608205 11.7816762 4.2481985 9.1466923 1 6 C0.34 5.67 -0.32 5.34 -1 5 C-0.67 3.35 -0.34 1.7 0 0 Z " fill="#4B648D" transform="translate(97,7)"/>
<path d="M0 0 C1.5843317 0.08768248 3.16753567 0.19587329 4.75 0.3125 C6.07257812 0.39951172 6.07257812 0.39951172 7.421875 0.48828125 C10.38438793 1.07629518 11.83444739 1.91319475 14 4 C14.75 7.1875 14.75 7.1875 15 10 C11.90798439 11.5460078 9.40124062 10.57425138 6.12890625 9.796875 C4 9 4 9 2 6.625 C1.15683607 4.41169468 0.54728422 2.29663914 0 0 Z " fill="#AEAAA8" transform="translate(38,52)"/>
<path d="M0 0 C0.66 1.32 1.32 2.64 2 4 C2.66 4 3.32 4 4 4 C4.33 3.34 4.66 2.68 5 2 C6.45184478 6.53701494 7.23509196 10.18061476 7 15 C4.36 15 1.72 15 -1 15 C-1.02693575 12.87506859 -1.04636628 10.75004088 -1.0625 8.625 C-1.07410156 7.44164062 -1.08570312 6.25828125 -1.09765625 5.0390625 C-1 2 -1 2 0 0 Z " fill="#45608E" transform="translate(129,145)"/>
<path d="M0 0 C2.13996397 3.20994596 2.22825842 3.56288614 1.79296875 7.125 C1.70080078 7.91390625 1.60863281 8.7028125 1.51367188 9.515625 C1.40603516 10.33546875 1.29839844 11.1553125 1.1875 12 C1.09146484 12.81984375 0.99542969 13.6396875 0.89648438 14.484375 C0.48962587 17.82662205 0.06894516 20.79316452 -1 24 C-4.96 24 -8.92 24 -13 24 C-11.71937515 22.2925002 -10.38232443 20.62626404 -9 19 C-8.34 19 -7.68 19 -7 19 C-6.67 17.35 -6.34 15.7 -6 14 C-5.01 14.66 -4.02 15.32 -3 16 C-3 16.99 -3 17.98 -3 19 C-1.5000589 17.5000589 -1.68392349 16.05340395 -1.46484375 13.96484375 C-1.33432617 12.75151367 -1.33432617 12.75151367 -1.20117188 11.51367188 C-1.11416016 10.66353516 -1.02714844 9.81339844 -0.9375 8.9375 C-0.84662109 8.08349609 -0.75574219 7.22949219 -0.66210938 6.34960938 C-0.43749278 4.23348465 -0.21824773 2.11679106 0 0 Z " fill="#455F8C" transform="translate(41,136)"/>
<path d="M0 0 C16.75338189 3.43444329 16.75338189 3.43444329 22 10.8125 C22.33 11.534375 22.66 12.25625 23 13 C20.61728761 12.10648285 18.32349789 11.18001628 16.09765625 9.94140625 C12.52422541 7.95921524 10.68247192 6.95125201 6.5 7.25 C5.2625 7.62125 5.2625 7.62125 4 8 C3.67 7.34 3.34 6.68 3 6 C0.97536745 5.34786708 0.97536745 5.34786708 -1 5 C-0.34 4.34 0.32 3.68 1 3 C0.67 2.01 0.34 1.02 0 0 Z " fill="#5A83B1" transform="translate(112,102)"/>
<path d="M0 0 C2.31 0.33 4.62 0.66 7 1 C7.33 2.32 7.66 3.64 8 5 C7.21625 5.45375 6.4325 5.9075 5.625 6.375 C2.96301969 7.88428742 2.96301969 7.88428742 1 10 C-1.4375 9.875 -1.4375 9.875 -4 9 C-5.8125 6.9375 -5.8125 6.9375 -7 5 C-5.5459375 4.5978125 -5.5459375 4.5978125 -4.0625 4.1875 C-3.051875 3.795625 -2.04125 3.40375 -1 3 C-0.67 2.01 -0.34 1.02 0 0 Z " fill="#7994AA" transform="translate(113,75)"/>
<path d="M0 0 C1.98 0.99 3.96 1.98 6 3 C6 3.66 6 4.32 6 5 C6.66 5.33 7.32 5.66 8 6 C7.01 6.495 7.01 6.495 6 7 C5.34 6.67 4.68 6.34 4 6 C4 6.66 4 7.32 4 8 C4.99 8.33 5.98 8.66 7 9 C5.02 9.66 3.04 10.32 1 11 C2.32 13.64 3.64 16.28 5 19 C1.25881605 17.75293868 0.99525199 16.74653994 -0.75 13.3125 C-2.74816381 9.15512634 -3.54966741 6.52979704 -2 2 C-1.34 2 -0.68 2 0 2 C0 1.34 0 0.68 0 0 Z " fill="#415578" transform="translate(38,43)"/>
<path d="M0 0 C5.28 0 10.56 0 16 0 C15 5 15 5 13 7 C13.32041397 9.60280568 13.32041397 9.60280568 14 12 C13.57589844 11.62488281 13.15179688 11.24976563 12.71484375 10.86328125 C9.59416289 8.14040147 6.46049801 5.55916392 3.0625 3.1875 C2.051875 2.465625 1.04125 1.74375 0 1 C0 0.67 0 0.34 0 0 Z " fill="#AEA5A0" transform="translate(89,0)"/>
<path d="M0 0 C0.33 0.66 0.66 1.32 1 2 C3.31 1.34 5.62 0.68 8 0 C8 0.99 8 1.98 8 3 C7.34 3 6.68 3 6 3 C6.99 4.65 7.98 6.3 9 8 C2.25 12 2.25 12 0 12 C0.33 10.68 0.66 9.36 1 8 C0.01 8.33 -0.98 8.66 -2 9 C-1.67 8.01 -1.34 7.02 -1 6 C-1 5.01 -1 4.02 -1 3 C-0.67 2.01 -0.34 1.02 0 0 Z M-5 9 C-4.01 9.33 -3.02 9.66 -2 10 C-2.99 10 -3.98 10 -5 10 C-5 9.67 -5 9.34 -5 9 Z M-2 11 C-1.01 11.495 -1.01 11.495 0 12 C-0.33 12.66 -0.66 13.32 -1 14 C-1.33 13.01 -1.66 12.02 -2 11 Z " fill="#608CC0" transform="translate(93,80)"/>
<path d="M0 0 C4.04420651 1.77945087 7.46078487 4.39529673 11 7 C10.34 8.32 9.68 9.64 9 11 C8.0925 10.835 7.185 10.67 6.25 10.5 C2.88912497 9.89862854 2.88912497 9.89862854 -1 10 C-2.75 7.5 -2.75 7.5 -4 5 C-3.01 4.67 -2.02 4.34 -1 4 C-0.26676204 1.98491642 -0.26676204 1.98491642 0 0 Z " fill="#4DC9E6" transform="translate(103,79)"/>
<path d="M0 0 C1.32 0 2.64 0 4 0 C5.42041821 2.84083641 5.31452272 4.85477278 5 8 C3.1875 10.375 3.1875 10.375 1 12 C0.01 12 -0.98 12 -2 12 C-3.25 9.375 -3.25 9.375 -4 6 C-2.375 2.625 -2.375 2.625 0 0 Z " fill="#E3C6BA" transform="translate(89,41)"/>
<path d="M0 0 C1.32 0.66 2.64 1.32 4 2 C3.67 2.66 3.34 3.32 3 4 C3.66 4 4.32 4 5 4 C3.76250343 7.42691357 2.5489363 10.35302769 0 13 C-1.32 13 -2.64 13 -4 13 C-5.1875 11.3125 -5.1875 11.3125 -6 9 C-4.75 6.25 -4.75 6.25 -3 4 C-2.34 4 -1.68 4 -1 4 C-0.67 2.68 -0.34 1.36 0 0 Z " fill="#46608D" transform="translate(65,77)"/>
<path d="M0 0 C6 7.5 6 7.5 12 15 C11.67 15.66 11.34 16.32 11 17 C9.35 15.68 7.7 14.36 6 13 C6.7734375 14.1446875 6.7734375 14.1446875 7.5625 15.3125 C8.036875 16.199375 8.51125 17.08625 9 18 C8.67 18.99 8.34 19.98 8 21 C7.01524786 19.90081184 6.03739527 18.7954398 5.0625 17.6875 C4.24458984 16.76517578 4.24458984 16.76517578 3.41015625 15.82421875 C2 14 2 14 1 11 C1.66 10.01 2.32 9.02 3 8 C2.505 7.4225 2.01 6.845 1.5 6.25 C0 4 0 4 0 0 Z " fill="#1B2D4D" transform="translate(51,78)"/>
<path d="M0 0 C1.32 0.99 2.64 1.98 4 3 C3.67 3.99 3.34 4.98 3 6 C2.34 6 1.68 6 1 6 C0.7525 6.680625 0.505 7.36125 0.25 8.0625 C-1.24197908 11.56865083 -3.06835511 14.71620368 -5 18 C-5.66 17.67 -6.32 17.34 -7 17 C-7 15.68 -7 14.36 -7 13 C-6.01 12.34 -5.02 11.68 -4 11 C-4.66 10.34 -5.32 9.68 -6 9 C-5.01 6.69 -4.02 4.38 -3 2 C-2.34 2 -1.68 2 -1 2 C-0.67 1.34 -0.34 0.68 0 0 Z " fill="#5676A7" transform="translate(99,124)"/>
<path d="M0 0 C0.91072266 0.99580078 0.91072266 0.99580078 1.83984375 2.01171875 C2.55269531 2.66785156 3.26554687 3.32398438 4 4 C6.58333333 3.91666667 6.58333333 3.91666667 9 3 C9.99 2.67 10.98 2.34 12 2 C11.46324097 5.85103301 9.88399077 7.31797587 6.9375 9.75 C5.83728516 10.67039062 5.83728516 10.67039062 4.71484375 11.609375 C4.14894531 12.06828125 3.58304687 12.5271875 3 13 C2.34 12.67 1.68 12.34 1 12 C0.5859375 9.27734375 0.5859375 9.27734375 0.375 5.9375 C0.30023438 4.83277344 0.22546875 3.72804687 0.1484375 2.58984375 C0.09945312 1.73519531 0.05046875 0.88054688 0 0 Z " fill="#1D3259" transform="translate(85,59)"/>
<path d="M0 0 C0.66 0 1.32 0 2 0 C2.33 0.99 2.66 1.98 3 3 C3.66 2.34 4.32 1.68 5 1 C5.625 2.75 5.625 2.75 6 5 C5.67 5.639375 5.34 6.27875 5 6.9375 C3.68959353 9.64021335 4.21389608 11.17002588 5 14 C4.67 13.34 4.34 12.68 4 12 C3.34 12 2.68 12 2 12 C1.67 12.66 1.34 13.32 1 14 C0.7525 13.195625 0.505 12.39125 0.25 11.5625 C-0.72238859 8.828919 -0.72238859 8.828919 -3.125 8.1875 C-3.74375 8.125625 -4.3625 8.06375 -5 8 C-4.34 6.68 -3.68 5.36 -3 4 C-3 4.66 -3 5.32 -3 6 C-2.34 5.67 -1.68 5.34 -1 5 C-0.34444881 2.47266765 -0.34444881 2.47266765 0 0 Z " fill="#91949B" transform="translate(98,53)"/>
<path d="M0 0 C1.09054688 0.02320312 2.18109375 0.04640625 3.3046875 0.0703125 C4.40039062 0.08835938 5.49609375 0.10640625 6.625 0.125 C7.46804687 0.14820312 8.31109375 0.17140625 9.1796875 0.1953125 C8.1896875 0.8553125 7.1996875 1.5153125 6.1796875 2.1953125 C7.8296875 2.5253125 9.4796875 2.8553125 11.1796875 3.1953125 C11.1796875 3.5253125 11.1796875 3.8553125 11.1796875 4.1953125 C5.95255921 5.66257658 1.64816795 6.30468211 -3.8203125 6.1953125 C-4.8103125 6.6903125 -4.8103125 6.6903125 -5.8203125 7.1953125 C-4.73599646 0.32797759 -4.73599646 0.32797759 0 0 Z " fill="#416093" transform="translate(52.8203125,-0.1953125)"/>
<path d="M0 0 C0.66 1.32 1.32 2.64 2 4 C0 6 0 6 -1.98828125 6.08984375 C-3.13876953 6.01443359 -3.13876953 6.01443359 -4.3125 5.9375 C-8.39361652 5.82559842 -10.69144992 6.43854188 -14 9 C-13.690625 9.66 -13.38125 10.32 -13.0625 11 C-11.75039745 14.70476015 -11.39735865 18.09263991 -11 22 C-13.24433445 19.44961994 -14.07917258 17.71299939 -15 14.375 C-15.68257524 10.74926111 -15.68257524 10.74926111 -19 9 C-19 8.34 -19 7.68 -19 7 C-17.906875 6.71125 -16.81375 6.4225 -15.6875 6.125 C-11.95986155 5.18106796 -11.95986155 5.18106796 -9 3 C-6.95703125 2.8046875 -6.95703125 2.8046875 -4.8125 2.875 C-2.9253125 2.936875 -2.9253125 2.936875 -1 3 C-0.67 2.01 -0.34 1.02 0 0 Z " fill="#86A4B6" transform="translate(136,66)"/>
<path d="M0 0 C0.33 1.32 0.66 2.64 1 4 C0.36191406 4.40992187 -0.27617188 4.81984375 -0.93359375 5.2421875 C-2.17302734 6.05042969 -2.17302734 6.05042969 -3.4375 6.875 C-4.67306641 7.67550781 -4.67306641 7.67550781 -5.93359375 8.4921875 C-8.11038871 9.83834306 -8.11038871 9.83834306 -9 12 C-9.66 12 -10.32 12 -11 12 C-11 12.66 -11 13.32 -11 14 C-12.98 14.33 -14.96 14.66 -17 15 C-17 14.34 -17 13.68 -17 13 C-16.40316406 12.9278125 -15.80632813 12.855625 -15.19140625 12.78125 C-12.20254603 11.71570268 -11.53702483 10.19573251 -9.9375 7.5 C-7.31599737 3.10533246 -7.31599737 3.10533246 -4 2 C-3.34 2 -2.68 2 -2 2 C-1.34 1.34 -0.68 0.68 0 0 Z " fill="#D5BFB6" transform="translate(78,77)"/>
<path d="M0 0 C0.99 0.33 1.98 0.66 3 1 C3.05786668 4.79160297 3.09355054 8.58309311 3.125 12.375 C3.14175781 13.45523438 3.15851563 14.53546875 3.17578125 15.6484375 C3.18222656 16.6796875 3.18867188 17.7109375 3.1953125 18.7734375 C3.20578613 19.72653809 3.21625977 20.67963867 3.22705078 21.66162109 C3 24 3 24 1 26 C0.07446257 22.86149936 -0.11664647 20.06319222 -0.09765625 16.796875 C-0.09443359 15.8171875 -0.09121094 14.8375 -0.08789062 13.828125 C-0.07951172 12.81234375 -0.07113281 11.7965625 -0.0625 10.75 C-0.05798828 9.71875 -0.05347656 8.6875 -0.04882812 7.625 C-0.03706088 5.08327427 -0.02062011 2.54166681 0 0 Z " fill="#4A6995" transform="translate(133,115)"/>
<path d="M0 0 C3.77777778 1.51111111 3.77777778 1.51111111 4.9375 4.0625 C5.4634375 5.0215625 5.4634375 5.0215625 6 6 C8.48400985 6.66347631 8.48400985 6.66347631 11 7 C11.66 7.66 12.32 8.32 13 9 C8.25 12 8.25 12 6 12 C6 11.34 6 10.68 6 10 C5.01 9.67 4.02 9.34 3 9 C1.16825705 6.15062207 0.55260426 3.31562557 0 0 Z " fill="#496494" transform="translate(53,40)"/>
<path d="M0 0 C0.05410687 1.77049689 0.09284119 3.54146849 0.125 5.3125 C0.14820313 6.29863281 0.17140625 7.28476563 0.1953125 8.30078125 C0 11 0 11 -2 14 C-2.268125 13.030625 -2.53625 12.06125 -2.8125 11.0625 C-3.204375 10.051875 -3.59625 9.04125 -4 8 C-4.99 7.67 -5.98 7.34 -7 7 C-6.42655063 4.13275314 -6.1385485 3.1385485 -4 1 C-1 0 -1 0 0 0 Z " fill="#334D79" transform="translate(40,143)"/>
<path d="M0 0 C3.32163779 1.1072126 3.83680492 1.81178595 5.875 4.5 C8.25245075 7.41007822 8.25245075 7.41007822 11.6875 8.875 C12.450625 8.91625 13.21375 8.9575 14 9 C14.99 9.33 15.98 9.66 17 10 C14.27920229 10.8683397 12.78767405 11.32048078 10 11 C7.47701533 9.34482046 5.32875882 7.51501703 3.11328125 5.46875 C1.13439482 3.72940898 1.13439482 3.72940898 -1.08203125 4.34375 C-1.71496094 4.5603125 -2.34789062 4.776875 -3 5 C-3.99 4.67 -4.98 4.34 -6 4 C-6 3.01 -6 2.02 -6 1 C-4.7934375 1.0309375 -4.7934375 1.0309375 -3.5625 1.0625 C-1.06645115 1.29633621 -1.06645115 1.29633621 0 0 Z " fill="#A09D9D" transform="translate(59,54)"/>
<path d="M0 0 C0.66 0.33 1.32 0.66 2 1 C2 1.99 2 2.98 2 4 C2.99 4.66 3.98 5.32 5 6 C4.34 6 3.68 6 3 6 C2.67 6.99 2.34 7.98 2 9 C1.01 9 0.02 9 -1 9 C-1.33 10.32 -1.66 11.64 -2 13 C-2.66 11.02 -3.32 9.04 -4 7 C-4.66 7 -5.32 7 -6 7 C-5.67 5.68 -5.34 4.36 -5 3 C-3.35 2.67 -1.7 2.34 0 2 C0 1.34 0 0.68 0 0 Z " fill="#4B6A99" transform="translate(102,44)"/>
<path d="M0 0 C1.98 0.66 3.96 1.32 6 2 C6.33 3.65 6.66 5.3 7 7 C4.03 9.475 4.03 9.475 1 12 C0.63896464 10.18885568 0.28634496 8.37603177 -0.0625 6.5625 C-0.25972656 5.55316406 -0.45695312 4.54382812 -0.66015625 3.50390625 C-0.77230469 2.67761719 -0.88445312 1.85132813 -1 1 C-0.67 0.67 -0.34 0.34 0 0 Z " fill="#5C739C" transform="translate(80,47)"/>
<path d="M0 0 C0.144375 0.598125 0.28875 1.19625 0.4375 1.8125 C0.8872439 3.56150404 1.42892341 5.28677023 2 7 C1.59283242 9.76475326 1.12337063 12.45474736 0.5625 15.1875 C0.41490234 15.93708984 0.26730469 16.68667969 0.11523438 17.45898438 C-0.24972791 19.30734174 -0.62397411 21.15386161 -1 23 C-1.33 23 -1.66 23 -2 23 C-2.8939765 15.18374603 -3.27431515 8.58105051 -1 1 C-0.67 0.67 -0.34 0.34 0 0 Z " fill="#385682" transform="translate(40,94)"/>
<path d="M0 0 C0.99 0.33 1.98 0.66 3 1 C2.34 1.66 1.68 2.32 1 3 C1 3.99 1 4.98 1 6 C2.32 5.67 3.64 5.34 5 5 C5.99 6.485 5.99 6.485 7 8 C5.63875 8.185625 5.63875 8.185625 4.25 8.375 C1.08792842 8.8251528 1.08792842 8.8251528 -1.1875 10.125 C-3 11 -3 11 -6 10 C-5.38003922 8.70590711 -4.75383647 7.41480327 -4.125 6.125 C-3.77695312 5.40570312 -3.42890625 4.68640625 -3.0703125 3.9453125 C-2 2 -2 2 0 0 Z " fill="#355180" transform="translate(47,0)"/>
<path d="M0 0 C1.32 0.66 2.64 1.32 4 2 C4 2.66 4 3.32 4 4 C4.66 4.33 5.32 4.66 6 5 C4.1875 6.0625 4.1875 6.0625 2 7 C1.01 6.67 0.02 6.34 -1 6 C-0.67 7.98 -0.34 9.96 0 12 C-0.66 12 -1.32 12 -2 12 C-2.0825 11.2575 -2.165 10.515 -2.25 9.75 C-3.1396946 6.48778646 -4.48503749 5.19045122 -7 3 C-5.68 3.33 -4.36 3.66 -3 4 C-2.67 3.34 -2.34 2.68 -2 2 C-1.34 2 -0.68 2 0 2 C0 1.34 0 0.68 0 0 Z " fill="#3A4367" transform="translate(54,49)"/>
<path d="M0 0 C1.8125 1.375 1.8125 1.375 3.8125 4.375 C2.4925 4.375 1.1725 4.375 -0.1875 4.375 C-0.5175 5.035 -0.8475 5.695 -1.1875 6.375 C-1.8475 5.715 -2.5075 5.055 -3.1875 4.375 C-3.5175 6.025 -3.8475 7.675 -4.1875 9.375 C-6.54703094 7.01546906 -6.67891413 5.59604383 -7.1875 2.375 C-2.79379921 -0.79822835 -2.79379921 -0.79822835 0 0 Z " fill="#374B77" transform="translate(55.1875,63.625)"/>
<path d="M0 0 C2.475 0.99 2.475 0.99 5 2 C5.33 1.34 5.66 0.68 6 0 C6.33 4.29 6.66 8.58 7 13 C5 10 5 10 4 8 C3.34 8 2.68 8 2 8 C0.23537317 4.91190305 0 3.76687864 0 0 Z " fill="#55729E" transform="translate(129,141)"/>
<path d="M0 0 C0.99 0.33 1.98 0.66 3 1 C1.7175023 3.86095641 0.54656011 6.11365918 -2 8 C-4.6875 8.1875 -4.6875 8.1875 -7 8 C-7 6.35 -7 4.7 -7 3 C-5.68 2.67 -4.36 2.34 -3 2 C-2.67 2.66 -2.34 3.32 -2 4 C-1.34 2.68 -0.68 1.36 0 0 Z " fill="#B0A19A" transform="translate(40,6)"/>
<path d="M0 0 C1.16796875 1.6796875 1.16796875 1.6796875 2 4 C0.98828125 6.5078125 0.98828125 6.5078125 -0.6875 9.125 C-1.22761719 9.99382812 -1.76773438 10.86265625 -2.32421875 11.7578125 C-4 14 -4 14 -7 16 C-7 15.01 -7 14.02 -7 13 C-6.34 12.67 -5.68 12.34 -5 12 C-4.87625 11.29875 -4.7525 10.5975 -4.625 9.875 C-3.78974332 6.03281926 -2.03952379 3.35534559 0 0 Z " fill="#476697" transform="translate(100,130)"/>
<path d="M0 0 C2.625 -0.1875 2.625 -0.1875 5 0 C5 0.99 5 1.98 5 3 C2.625 4.5625 2.625 4.5625 0 6 C-0.66 6.66 -1.32 7.32 -2 8 C-4.5625 7.75 -4.5625 7.75 -7 7 C-7.33 6.34 -7.66 5.68 -8 5 C-7.05125 4.731875 -6.1025 4.46375 -5.125 4.1875 C-1.74732727 3.25013412 -1.74732727 3.25013412 0 0 Z " fill="#6E96B1" transform="translate(116,77)"/>
<path d="M0 0 C0.66 0 1.32 0 2 0 C2 0.66 2 1.32 2 2 C2.66 2 3.32 2 4 2 C5.42857143 10.57142857 5.42857143 10.57142857 3 14 C3 12.68 3 11.36 3 10 C2.01 9.67 1.02 9.34 0 9 C0.020625 8.21625 0.04125 7.4325 0.0625 6.625 C0.18684063 4.01885039 0.18684063 4.01885039 -1 2 C-0.67 1.34 -0.34 0.68 0 0 Z " fill="#8997A8" transform="translate(33,94)"/>
<path d="M0 0 C0.33 0 0.66 0 1 0 C0.97679687 0.74765625 0.95359375 1.4953125 0.9296875 2.265625 C0.91164062 3.25046875 0.89359375 4.2353125 0.875 5.25 C0.84019531 6.71179688 0.84019531 6.71179688 0.8046875 8.203125 C1.00445615 11.06381212 1.6915426 12.50971012 3 15 C2.625 18.25 2.625 18.25 2 21 C-0.8690253 17.25779308 -2.22120093 15.48738034 -1.625 10.75 C-1.52574219 9.95207031 -1.42648438 9.15414062 -1.32421875 8.33203125 C-0.93666551 5.54444953 -0.49720258 2.77012865 0 0 Z " fill="#4C6B9E" transform="translate(53,102)"/>
<path d="M0 0 C0.33 0 0.66 0 1 0 C1.45572917 1.98567708 1.91145833 3.97135417 2.3671875 5.95703125 C2.98007723 8.27742974 2.98007723 8.27742974 5 11 C4.34 11.66 3.68 12.32 3 13 C2.01 13 1.02 13 0 13 C-1.29721449 9.10835652 -1.13033993 6.10570774 -1 2 C-0.67 1.34 -0.34 0.68 0 0 Z " fill="#B3645D" transform="translate(50,76)"/>
<path d="M0 0 C0.598125 0.185625 1.19625 0.37125 1.8125 0.5625 C4.16408762 1.22093687 4.16408762 1.22093687 7 0 C7.99 1.65 8.98 3.3 10 5 C7.1875 5.625 7.1875 5.625 4 6 C1 4 1 4 0.3125 1.875 C0.209375 1.25625 0.10625 0.6375 0 0 Z " fill="#3C5585" transform="translate(85,58)"/>
<path d="M0 0 C1.37562854 1.28965176 2.70766393 2.62689293 4 4 C4 4.66 4 5.32 4 6 C-1.41176471 10 -1.41176471 10 -4 10 C-2.8905928 6.51329166 -1.73662334 3.22515763 0 0 Z " fill="#F4EFE8" transform="translate(46,68)"/>
<path d="M0 0 C0.33 0 0.66 0 1 0 C1.10815225 1.76949095 1.18566083 3.54087487 1.25 5.3125 C1.29640625 6.29863281 1.3428125 7.28476563 1.390625 8.30078125 C1 11 1 11 -1.015625 12.85546875 C-1.67046875 13.23316406 -2.3253125 13.61085938 -3 14 C-3.66 13.01 -4.32 12.02 -5 11 C-4.360625 10.29875 -3.72125 9.5975 -3.0625 8.875 C-0.83613898 5.77158767 -0.34919057 3.75379861 0 0 Z " fill="#E1BFAD" transform="translate(85,64)"/>
<path d="M0 0 C1.65 0 3.3 0 5 0 C5.66 1.65 6.32 3.3 7 5 C7.66 5 8.32 5 9 5 C9 5.66 9 6.32 9 7 C9.66 7 10.32 7 11 7 C11.33 8.32 11.66 9.64 12 11 C11.01 11 10.02 11 9 11 C8.67 9.35 8.34 7.7 8 6 C7.01 5.67 6.02 5.34 5 5 C5 4.34 5 3.68 5 3 C2.525 2.01 2.525 2.01 0 1 C0 0.67 0 0.34 0 0 Z " fill="#70A9C3" transform="translate(135,93)"/>
<path d="M0 0 C0.66 0 1.32 0 2 0 C3.35439668 2.70879335 3.06501451 5.00933268 3 8 C2.01 8.495 2.01 8.495 1 9 C0.01 8.01 -0.98 7.02 -2 6 C-1.34 4.02 -0.68 2.04 0 0 Z " fill="#BD9384" transform="translate(87,43)"/>
<path d="M0 0 C2.64 0.66 5.28 1.32 8 2 C7.34 2.66 6.68 3.32 6 4 C6.66 4.66 7.32 5.32 8 6 C6.02 6.99 6.02 6.99 4 8 C3.67 7.34 3.34 6.68 3 6 C0.97536745 5.34786708 0.97536745 5.34786708 -1 5 C-0.34 4.34 0.32 3.68 1 3 C0.67 2.01 0.34 1.02 0 0 Z " fill="#537EAF" transform="translate(112,102)"/>
<path d="M0 0 C4.20240011 3.71750779 6.99782679 8.31660979 10 13 C9.67 13.66 9.34 14.32 9 15 C0 4.89320388 0 4.89320388 0 0 Z " fill="#D8D9D8" transform="translate(51,75)"/>
<path d="M0 0 C3.0831351 1.19899698 6.06279492 2.47700477 9 4 C9 4.66 9 5.32 9 6 C9.66 6 10.32 6 11 6 C10.67 6.99 10.34 7.98 10 9 C7.27425729 8.62669176 6.19177915 8.20805399 4.296875 6.15234375 C3.53117187 5.05599609 3.53117187 5.05599609 2.75 3.9375 C2.22921875 3.20402344 1.7084375 2.47054687 1.171875 1.71484375 C0.78515625 1.14894531 0.3984375 0.58304688 0 0 Z " fill="#F3EEE7" transform="translate(54,62)"/>
<path d="M0 0 C1.41687119 4.25061356 0.19320039 6.71851625 -1 11 C-1.33 9.68 -1.66 8.36 -2 7 C-3.32 6.67 -4.64 6.34 -6 6 C-2.25 1.125 -2.25 1.125 0 0 Z " fill="#A19897" transform="translate(50,73)"/>
<path d="M0 0 C4.55737263 0.43820891 7.57653445 0.85041169 11 4 C10.01 4.33 9.02 4.66 8 5 C7.01 4.34 6.02 3.68 5 3 C5 3.66 5 4.32 5 5 C3.35 4.67 1.7 4.34 0 4 C0 2.68 0 1.36 0 0 Z " fill="#767B8D" transform="translate(42,49)"/>
<path d="M0 0 C0.99 0 1.98 0 3 0 C3.6875 2.3125 3.6875 2.3125 4 5 C2.5625 6.8125 2.5625 6.8125 1 8 C1 7.01 1 6.02 1 5 C0.34 5 -0.32 5 -1 5 C-1.33 4.01 -1.66 3.02 -2 2 C-1.34 1.34 -0.68 0.68 0 0 Z " fill="#6283B6" transform="translate(45,97)"/>
<path d="M0 0 C0.33 0.99 0.66 1.98 1 3 C1.99 3.33 2.98 3.66 4 4 C4 4.33 4 4.66 4 5 C2.3603125 4.9071875 2.3603125 4.9071875 0.6875 4.8125 C-2.92126083 4.64402086 -2.92126083 4.64402086 -4.9375 6.5 C-5.288125 6.995 -5.63875 7.49 -6 8 C-6.66 7.67 -7.32 7.34 -8 7 C-5.36 4.69 -2.72 2.38 0 0 Z " fill="#495D83" transform="translate(49,86)"/>
<path d="M0 0 C0 0.33 0 0.66 0 1 C-0.90363281 1.20496094 -1.80726562 1.40992188 -2.73828125 1.62109375 C-3.91777344 1.89050781 -5.09726563 2.15992188 -6.3125 2.4375 C-7.48425781 2.70433594 -8.65601562 2.97117188 -9.86328125 3.24609375 C-13.00236971 3.95313969 -13.00236971 3.95313969 -16 5 C-15 2 -15 2 -13.0625 0.8125 C-8.70065683 -0.3447237 -4.4860872 -0.15679528 0 0 Z " fill="#DEBCAD" transform="translate(77,48)"/>
<path d="M0 0 C3.465 1.485 3.465 1.485 7 3 C6.3125 4.9375 6.3125 4.9375 5 7 C2.375 7.75 2.375 7.75 0 8 C0.185625 7.236875 0.37125 6.47375 0.5625 5.6875 C1.22819173 2.91032625 1.22819173 2.91032625 0 0 Z " fill="#4E6B98" transform="translate(107,32)"/>
<path d="M0 0 C1 2 1 2 0.44140625 3.9453125 C0.15136719 4.66460938 -0.13867188 5.38390625 -0.4375 6.125 C-0.72496094 6.84945313 -1.01242188 7.57390625 -1.30859375 8.3203125 C-1.53675781 8.87460937 -1.76492187 9.42890625 -2 10 C-2.99 9.67 -3.98 9.34 -5 9 C-4.7525 8.1028125 -4.7525 8.1028125 -4.5 7.1875 C-3.8885876 4.88655664 -3.8885876 4.88655664 -4 2 C-2.68 1.34 -1.36 0.68 0 0 Z " fill="#A7A3A3" transform="translate(30,21)"/>
<path d="M0 0 C2.99324263 1.0975223 3.84610901 1.67682892 5.25 4.625 C5.4975 5.40875 5.745 6.1925 6 7 C3.97954558 6.39816251 1.97888961 5.72693904 0 5 C-0.33 4.34 -0.66 3.68 -1 3 C-0.67 2.01 -0.34 1.02 0 0 Z " fill="#588AC1" transform="translate(102,90)"/>
<path d="M0 0 C0.66 0.99 1.32 1.98 2 3 C1.34 3 0.68 3 0 3 C-0.268125 3.969375 -0.53625 4.93875 -0.8125 5.9375 C-1.204375 6.948125 -1.59625 7.95875 -2 9 C-2.99 9.33 -3.98 9.66 -5 10 C-5.33 9.01 -5.66 8.02 -6 7 C-4.78515625 5.17578125 -4.78515625 5.17578125 -3.0625 3.3125 C-2.49660156 2.68988281 -1.93070312 2.06726562 -1.34765625 1.42578125 C-0.90292969 0.95527344 -0.45820312 0.48476563 0 0 Z " fill="#273D72" transform="translate(93,50)"/>
<path d="M0 0 C1.8125 0.1875 1.8125 0.1875 4 1 C5.8125 3.375 5.8125 3.375 7 6 C6.67 6.99 6.34 7.98 6 9 C4.99406757 7.8803014 3.9954151 6.7540588 3 5.625 C2.443125 4.99851562 1.88625 4.37203125 1.3125 3.7265625 C0 2 0 2 0 0 Z " fill="#1A3159" transform="translate(53,90)"/>
<path d="M0 0 C0.33 0.66 0.66 1.32 1 2 C3.31 1.34 5.62 0.68 8 0 C8 0.99 8 1.98 8 3 C6.824375 3.185625 6.824375 3.185625 5.625 3.375 C2.85942178 3.79117993 2.85942178 3.79117993 1 6 C0.34 5.01 -0.32 4.02 -1 3 C-0.67 2.01 -0.34 1.02 0 0 Z " fill="#6FA6D0" transform="translate(93,80)"/>
<path d="M0 0 C2.125 2.125 2.125 2.125 4 5 C3.25 8.3125 3.25 8.3125 2 11 C1.01 10.67 0.02 10.34 -1 10 C-0.34 9.34 0.32 8.68 1 8 C0.34 7.34 -0.32 6.68 -1 6 C-0.67 5.34 -0.34 4.68 0 4 C0 2.68 0 1.36 0 0 Z " fill="#4D7BA9" transform="translate(100,73)"/>
<path d="M0 0 C0.66 0.33 1.32 0.66 2 1 C1.67 1.66 1.34 2.32 1 3 C1 3.99 1 4.98 1 6 C0.34 6.66 -0.32 7.32 -1 8 C-3.625 7.625 -3.625 7.625 -6 7 C-4.02 4.69 -2.04 2.38 0 0 Z " fill="#7096CB" transform="translate(96,64)"/>
<path d="M0 0 C0 3 0 3 -1.6875 5.125 C-4.20933322 7.16972964 -5.81390075 7.64598897 -9 8 C-3.85714286 1.42857143 -3.85714286 1.42857143 0 0 Z " fill="#E4CABF" transform="translate(91,51)"/>
<path d="M0 0 C0.66 0 1.32 0 2 0 C2.05399736 1.45792884 2.09279177 2.91642712 2.125 4.375 C2.14820313 5.18710938 2.17140625 5.99921875 2.1953125 6.8359375 C2 9 2 9 0 11 C-1.125 3.375 -1.125 3.375 0 0 Z " fill="#1B315A" transform="translate(134,130)"/>
<path d="M0 0 C1.04449911 3.13349732 0.93423645 3.98968256 0 7 C-1.98 7 -3.96 7 -6 7 C-6 6.34 -6 5.68 -6 5 C-4.04072937 3.2856382 -2.04119788 1.61594832 0 0 Z " fill="#648CC3" transform="translate(87,73)"/>
<path d="M0 0 C1.39195915 4.17587745 -0.17676781 6.13474776 -2 10 C-3.32 9.01 -4.64 8.02 -6 7 C-4.02 4.69 -2.04 2.38 0 0 Z " fill="#2F4B7A" transform="translate(40,11)"/>
<path d="M0 0 C0.99 0.495 0.99 0.495 2 1 C2 1.99 2 2.98 2 4 C2.66 4 3.32 4 4 4 C4.33 6.31 4.66 8.62 5 11 C1.7089159 7.39042389 0.45336079 4.87362847 0 0 Z " fill="#29436E" transform="translate(37,121)"/>
<path d="M0 0 C1.5625 1.25 1.5625 1.25 3 3 C2.6875 5.1875 2.6875 5.1875 2 7 C0.35 6.67 -1.3 6.34 -3 6 C-1.125 1.125 -1.125 1.125 0 0 Z " fill="#688DC5" transform="translate(77,81)"/>
<path d="M0 0 C1.65 0 3.3 0 5 0 C4.6875 1.875 4.6875 1.875 4 4 C3.01 4.66 2.02 5.32 1 6 C1 5.01 1 4.02 1 3 C0.34 3 -0.32 3 -1 3 C-0.67 2.01 -0.34 1.02 0 0 Z " fill="#D0B9AF" transform="translate(72,50)"/>
<path d="M0 0 C1.76462683 3.08809695 2 4.23312136 2 8 C-1 10 -1 10 -4 10 C-3.67 9.34 -3.34 8.68 -3 8 C-2.67 8 -2.34 8 -2 8 C-1.34 5.36 -0.68 2.72 0 0 Z " fill="#DBB19E" transform="translate(91,43)"/>
<path d="M0 0 C0.33 0.66 0.66 1.32 1 2 C3.31 2 5.62 2 8 2 C7.34 2.66 6.68 3.32 6 4 C5.01 4 4.02 4 3 4 C2.67 4.99 2.34 5.98 2 7 C1.34 6.67 0.68 6.34 0 6 C0 4.02 0 2.04 0 0 Z " fill="#244576" transform="translate(94,43)"/>
<path d="M0 0 C1.65 1.65 3.3 3.3 5 5 C4.01 5.99 3.02 6.98 2 8 C0.4375 6.8125 0.4375 6.8125 -1 5 C-0.6875 2.3125 -0.6875 2.3125 0 0 Z " fill="#476493" transform="translate(97,7)"/>
<path d="M0 0 C0.78375 0.04125 1.5675 0.0825 2.375 0.125 C-0.20284846 2.77252004 -2.54148098 5.06932065 -5.625 7.125 C-4.53409091 0.21590909 -4.53409091 0.21590909 0 0 Z " fill="#9B9FA6" transform="translate(52.625,-0.125)"/>
<path d="M0 0 C0.66666667 2.66666667 1.33333333 5.33333333 2 8 C1.01 8 0.02 8 -1 8 C-2.98 4.535 -2.98 4.535 -5 1 C-4.34 1 -3.68 1 -3 1 C-2.67 1.66 -2.34 2.32 -2 3 C-1.34 2.01 -0.68 1.02 0 0 Z " fill="#53A5C8" transform="translate(127,97)"/>
<path d="M0 0 C0.99 0.33 1.98 0.66 3 1 C2.67 2.98 2.34 4.96 2 7 C0.35 5.35 -1.3 3.7 -3 2 C-2.01 1.34 -1.02 0.68 0 0 Z " fill="#51CEEB" transform="translate(102,83)"/>
<path d="M0 0 C3.16115776 1.36983503 3.9927092 1.9890638 6 5 C4.125 5.625 4.125 5.625 2 6 C1.34 5.34 0.68 4.68 0 4 C0 2.68 0 1.36 0 0 Z " fill="#4FBFDF" transform="translate(103,79)"/>
<path d="M0 0 C0.99 0.33 1.98 0.66 3 1 C3.33 2.98 3.66 4.96 4 7 C2.02 6.34 0.04 5.68 -2 5 C-1.125 1.125 -1.125 1.125 0 0 Z " fill="#BFBAB4" transform="translate(46,64)"/>
<path d="M0 0 C1.9375 0.625 1.9375 0.625 4 2 C4.75 5.125 4.75 5.125 5 8 C4.01 8.495 4.01 8.495 3 9 C2.01 8.34 1.02 7.68 0 7 C0.66 7 1.32 7 2 7 C1.34 4.69 0.68 2.38 0 0 Z " fill="#AFA099" transform="translate(48,54)"/>
<path d="M0 0 C1.98 0.99 1.98 0.99 4 2 C4 2.66 4 3.32 4 4 C4.66 4.33 5.32 4.66 6 5 C4.02 5.99 4.02 5.99 2 7 C0 5 0 5 -0.125 2.375 C-0.08375 1.59125 -0.0425 0.8075 0 0 Z " fill="#415883" transform="translate(54,49)"/>
<path d="M0 0 C0.99 0.33 1.98 0.66 3 1 C2.67 1.99 2.34 2.98 2 4 C1.34 4 0.68 4 0 4 C-0.33 4.66 -0.66 5.32 -1 6 C-1.99 6 -2.98 6 -4 6 C-3.6875 4.125 -3.6875 4.125 -3 2 C-2.01 1.34 -1.02 0.68 0 0 Z " fill="#828B9B" transform="translate(108,48)"/>
<path d="M0 0 C0.66 0.33 1.32 0.66 2 1 C2 2.65 2 4.3 2 6 C0.02 6.99 0.02 6.99 -2 8 C-2.33 6.68 -2.66 5.36 -3 4 C-2.34 3.67 -1.68 3.34 -1 3 C-0.67 2.01 -0.34 1.02 0 0 Z " fill="#778698" transform="translate(32,149)"/>
<path d="M0 0 C0.99 0.33 1.98 0.66 3 1 C2.34 1.66 1.68 2.32 1 3 C0.3574765 5.06874034 0.3574765 5.06874034 0 7 C-0.99 7 -1.98 7 -3 7 C-2.25 2.25 -2.25 2.25 0 0 Z " fill="#445F8B" transform="translate(47,0)"/>
<path d="M0 0 C0.66 0 1.32 0 2 0 C3.06671952 3.20015856 2.94845472 4.88544294 2.5625 8.1875 C2.46066406 9.08855469 2.35882813 9.98960938 2.25390625 10.91796875 C2.17011719 11.60503906 2.08632813 12.29210937 2 13 C-0.20914 9.68629 -0.22481553 8.6553979 -0.125 4.8125 C-0.10695313 3.91144531 -0.08890625 3.01039062 -0.0703125 2.08203125 C-0.04710938 1.39496094 -0.02390625 0.70789063 0 0 Z " fill="#7F90A4" transform="translate(32,117)"/>
<path d="M0 0 C1.32 0.66 2.64 1.32 4 2 C2.68 2.33 1.36 2.66 0 3 C-0.33 4.32 -0.66 5.64 -1 7 C-1.99 7 -2.98 7 -4 7 C-2.68 4.69 -1.36 2.38 0 0 Z " fill="#6489BE" transform="translate(109,116)"/>
<path d="M0 0 C0.66 1.32 1.32 2.64 2 4 C1.2575 4.144375 0.515 4.28875 -0.25 4.4375 C-2.52027739 4.90187492 -4.75759479 5.41863569 -7 6 C-7 5.34 -7 4.68 -7 4 C-4.68143083 2.45428722 -2.49361571 1.20381448 0 0 Z " fill="#6688C0" transform="translate(71,90)"/>
<path d="M0 0 C1.32 0.33 2.64 0.66 4 1 C4 1.66 4 2.32 4 3 C4.64252365 5.0078864 5.30741771 7.00882592 6 9 C0.42857143 3.85714286 0.42857143 3.85714286 0 0 Z " fill="#334472" transform="translate(51,73)"/>
<path d="M0 0 C2.475 0.495 2.475 0.495 5 1 C3.63016497 4.16115776 3.0109362 4.9927092 0 7 C0 4.69 0 2.38 0 0 Z " fill="#2A487E" transform="translate(81,52)"/>
<path d="M0 0 C0.99 0.33 1.98 0.66 3 1 C2.67 3.31 2.34 5.62 2 8 C2.66 8.33 3.32 8.66 4 9 C3.01 9 2.02 9 1 9 C-0.4783226 6.04335481 -0.06032783 3.25770263 0 0 Z " fill="#36537F" transform="translate(104,21)"/>
<path d="M0 0 C0.99 0.33 1.98 0.66 3 1 C1.60667426 4.36720387 0.0210714 5.9859524 -3 8 C-3 7.01 -3 6.02 -3 5 C-2.34 5 -1.68 5 -1 5 C-0.67 3.35 -0.34 1.7 0 0 Z " fill="#B1ABAB" transform="translate(40,6)"/>
<path d="M0 0 C0.33 0 0.66 0 1 0 C1.9765625 6.0546875 1.9765625 6.0546875 2 8 C1.34 8.66 0.68 9.32 0 10 C-0.19412181 8.52168779 -0.38012131 7.04230684 -0.5625 5.5625 C-0.66691406 4.73878906 -0.77132812 3.91507812 -0.87890625 3.06640625 C-0.91886719 2.38449219 -0.95882812 1.70257813 -1 1 C-0.67 0.67 -0.34 0.34 0 0 Z " fill="#3A547E" transform="translate(36,113)"/>
<path d="M0 0 C0 0.99 0 1.98 0 3 C-2.9375 2.625 -2.9375 2.625 -6 2 C-6.33 1.34 -6.66 0.68 -7 0 C-3.86650268 -1.04449911 -3.01031744 -0.93423645 0 0 Z " fill="#5F8BBE" transform="translate(124,105)"/>
<path d="M0 0 C1.65 0 3.3 0 5 0 C5.33 0.99 5.66 1.98 6 3 C5.67 3.66 5.34 4.32 5 5 C4.34 5 3.68 5 3 5 C3 4.34 3 3.68 3 3 C2.34 3 1.68 3 1 3 C0.67 2.01 0.34 1.02 0 0 Z " fill="#838B9D" transform="translate(111,41)"/>
<path d="M0 0 C1.32 0.33 2.64 0.66 4 1 C3.01 2.32 2.02 3.64 1 5 C-0.32 4.67 -1.64 4.34 -3 4 C-2.01 2.68 -1.02 1.36 0 0 Z " fill="#A9A3A0" transform="translate(43,0)"/>
<path d="M0 0 C0.66 0 1.32 0 2 0 C2.33 1.32 2.66 2.64 3 4 C2.01 4.33 1.02 4.66 0 5 C-0.73323796 7.01508358 -0.73323796 7.01508358 -1 9 C-2.60031344 5.79937313 -1.03173691 3.27728194 0 0 Z " fill="#6686B9" transform="translate(89,130)"/>
<path d="M0 0 C2.3431213 0.25561323 4.67843403 0.59270772 7 1 C7.33 1.66 7.66 2.32 8 3 C5.69 3 3.38 3 1 3 C0.67 2.01 0.34 1.02 0 0 Z " fill="#67869F" transform="translate(144,128)"/>
<path d="M0 0 C0.33 0 0.66 0 1 0 C1 1.65 1 3.3 1 5 C-0.65 5.33 -2.3 5.66 -4 6 C-4 5.34 -4 4.68 -4 4 C-3.34 4 -2.68 4 -2 4 C-1.34 2.68 -0.68 1.36 0 0 Z " fill="#7B7F9D" transform="translate(71,85)"/>
<path d="M0 0 C1.32 0.66 2.64 1.32 4 2 C3.34 3.98 2.68 5.96 2 8 C-0.36556709 5.63443291 -0.58244041 4.25696479 -1 1 C-0.67 0.67 -0.34 0.34 0 0 Z " fill="#344369" transform="translate(49,65)"/>
<path d="M0 0 C-0.33 0.99 -0.66 1.98 -1 3 C-3.64 3 -6.28 3 -9 3 C-7.14340032 -0.71319936 -3.69365381 -0.09982848 0 0 Z " fill="#495368" transform="translate(72,50)"/>
<path d="M0 0 C1.5 1.3125 1.5 1.3125 3 3 C3 3.99 3 4.98 3 6 C3.99 6.33 4.98 6.66 6 7 C4.02 7 2.04 7 0 7 C0 4.69 0 2.38 0 0 Z " fill="#233252" transform="translate(39,45)"/>
<path d="M0 0 C0.33 1.32 0.66 2.64 1 4 C-1.31 4.33 -3.62 4.66 -6 5 C-2.25 1.125 -2.25 1.125 0 0 Z " fill="#253E6E" transform="translate(75,67)"/>
<path d="M0 0 C1.65 1.65 3.3 3.3 5 5 C4.01 5.495 4.01 5.495 3 6 C3 6.66 3 7.32 3 8 C2.34 8 1.68 8 1 8 C0.67 5.36 0.34 2.72 0 0 Z " fill="#293D6A" transform="translate(85,59)"/>
<path d="M0 0 C1.65 0 3.3 0 5 0 C5.33 0.66 5.66 1.32 6 2 C3.69 2.33 1.38 2.66 -1 3 C-0.67 2.01 -0.34 1.02 0 0 Z " fill="#CEC5BF" transform="translate(64,64)"/>
<path d="M0 0 C0.33 0 0.66 0 1 0 C2.23076923 6.4 2.23076923 6.4 1.0625 9.4375 C0.711875 9.953125 0.36125 10.46875 0 11 C-0.99 10.67 -1.98 10.34 -3 10 C-2.34 9.34 -1.68 8.68 -1 8 C-0.54188325 6.02764667 -0.54188325 6.02764667 -0.375 3.875 C-0.25125 2.59625 -0.1275 1.3175 0 0 Z " fill="#D2C2B5" transform="translate(80,53)"/>
<path d="M0 0 C2.125 0.9375 2.125 0.9375 4 2 C1 4 1 4 -1.1875 3.625 C-1.785625 3.41875 -2.38375 3.2125 -3 3 C-2 1 -2 1 0 0 Z " fill="#456192" transform="translate(91,60)"/>
<path d="M0 0 C1.98 0 3.96 0 6 0 C5.67 1.32 5.34 2.64 5 4 C3.35 3.67 1.7 3.34 0 3 C0 2.01 0 1.02 0 0 Z " fill="#B4B0AD" transform="translate(53,55)"/>
<path d="M0 0 C3.16115776 1.36983503 3.9927092 1.9890638 6 5 C4.68 5.33 3.36 5.66 2 6 C1.34 4.02 0.68 2.04 0 0 Z " fill="#446193" transform="translate(91,37)"/>
<path d="M0 0 C1.10844919 3.32534757 0.84454356 5.62182575 0 9 C-1.76462683 5.91190305 -2 4.76687864 -2 1 C-1.34 0.67 -0.68 0.34 0 0 Z " fill="#999391" transform="translate(26,29)"/>
</svg>
